<svg width="28" height="28" viewBox="0 0 28 28" fill="none" xmlns="http://www.w3.org/2000/svg">
<path d="M23.3434 15.1912L2.09719 15.1946C1.79277 15.1946 1.50071 15.0736 1.28545 14.8584C1.07017 14.6431 0.949219 14.3511 0.949219 14.0466C0.949219 13.7422 1.07017 13.4502 1.28545 13.2349C1.5007 13.0197 1.79278 12.8987 2.09719 12.8987L23.3434 12.9021L13.2382 2.79688C13.0234 2.5821 12.9027 2.2908 12.9027 1.98706C12.9027 1.68331 13.0234 1.39201 13.2382 1.17724C13.4529 0.962458 13.7442 0.841797 14.048 0.841797C14.3517 0.841797 14.643 0.962456 14.8578 1.17724L26.9174 13.2368C27.1322 13.4516 27.2528 13.7429 27.2528 14.0466C27.2528 14.3504 27.1322 14.6417 26.9174 14.8565L14.8578 26.916C14.643 27.1308 14.3517 27.2515 14.048 27.2515C13.7442 27.2515 13.4529 27.1308 13.2382 26.916C13.0234 26.7013 12.9027 26.41 12.9027 26.1062C12.9027 25.8025 13.0234 25.5112 13.2382 25.2964L23.3434 15.1912Z" fill="#212C33"/>
</svg>
