<svg width="14" height="14" viewBox="0 0 14 14" fill="none" xmlns="http://www.w3.org/2000/svg">
<path fill-rule="evenodd" clip-rule="evenodd" d="M1.7237 5.89815C1.46152 5.89815 1.21007 6.0023 1.02467 6.18769C0.839281 6.37308 0.735128 6.62453 0.735128 6.88672C0.735128 7.1489 0.839281 7.40035 1.02467 7.58575C1.21007 7.77114 1.46152 7.87529 1.7237 7.87529L10.3907 7.87389L6.52574 11.7388C6.34058 11.924 6.23656 12.1751 6.23656 12.437C6.23656 12.6988 6.34058 12.9499 6.52574 13.1351C6.71089 13.3203 6.96202 13.4243 7.22388 13.4243C7.48573 13.4243 7.73686 13.3203 7.92202 13.1351L13.4723 7.58486C13.6574 7.3997 13.7615 7.14857 13.7615 6.88672C13.7615 6.62486 13.6574 6.37373 13.4723 6.18857L7.92202 0.638329C7.73686 0.453169 7.48573 0.349148 7.22388 0.349147C6.96202 0.349147 6.71089 0.45317 6.52574 0.638328C6.34058 0.823488 6.23656 1.07462 6.23656 1.33647C6.23656 1.59833 6.34058 1.84946 6.52574 2.03462L10.3907 5.89954L1.7237 5.89815Z" fill="white"/>
</svg>
