<svg width="29" height="29" viewBox="0 0 29 29" fill="none" xmlns="http://www.w3.org/2000/svg">
<path fill-rule="evenodd" clip-rule="evenodd" d="M2.29426 12.1038C1.72401 12.1038 1.17711 12.3303 0.77388 12.7335C0.37065 13.1368 0.144119 13.6837 0.144119 14.2539C0.144119 14.8242 0.37065 15.3711 0.77388 15.7743C1.17711 16.1775 1.72401 16.4041 2.29426 16.4041L21.1449 16.401L12.7387 24.8072C12.336 25.21 12.1097 25.7562 12.1097 26.3257C12.1097 26.8952 12.336 27.4414 12.7387 27.8442C13.1414 28.2469 13.6876 28.4731 14.2572 28.4731C14.8267 28.4731 15.3729 28.2469 15.7756 27.8442L27.8474 15.7724C28.2501 15.3696 28.4764 14.8234 28.4764 14.2539C28.4764 13.6844 28.2501 13.1382 27.8474 12.7354L15.7756 0.663656C15.3729 0.260934 14.8267 0.0346859 14.2572 0.0346857C13.6876 0.0346868 13.1414 0.260934 12.7387 0.663656C12.336 1.06638 12.1097 1.61258 12.1097 2.18212C12.1097 2.75165 12.336 3.29786 12.7387 3.70058L21.1449 12.1068L2.29426 12.1038Z" fill="#212C33"/>
</svg>
