<svg width="40" height="40" viewBox="0 0 40 40" fill="none" xmlns="http://www.w3.org/2000/svg">
<rect width="40" height="40" rx="20" fill="white"/>
<path fill-rule="evenodd" clip-rule="evenodd" d="M14.3878 18.8989C14.1256 18.8989 13.8741 19.003 13.6887 19.1884C13.5033 19.3738 13.3992 19.6253 13.3992 19.8875C13.3992 20.1496 13.5033 20.4011 13.6887 20.5865C13.8741 20.7719 14.1256 20.876 14.3878 20.876L23.0547 20.8746L19.1898 24.7396C19.0046 24.9247 18.9006 25.1758 18.9006 25.4377C18.9006 25.6996 19.0046 25.9507 19.1898 26.1358C19.375 26.321 19.6261 26.425 19.8879 26.425C20.1498 26.425 20.4009 26.321 20.5861 26.1358L26.1363 20.5856C26.3215 20.4004 26.4255 20.1493 26.4255 19.8875C26.4255 19.6256 26.3215 19.3745 26.1363 19.1893L20.5861 13.6391C20.4009 13.4539 20.1498 13.3499 19.8879 13.3499C19.6261 13.3499 19.375 13.4539 19.1898 13.6391C19.0046 13.8242 18.9006 14.0753 18.9006 14.3372C18.9006 14.5991 19.0046 14.8502 19.1898 15.0353L23.0547 18.9003L14.3878 18.8989Z" fill="#212C33"/>
</svg>
