<svg width="27" height="27" viewBox="0 0 27 27" fill="none" xmlns="http://www.w3.org/2000/svg">
<path d="M3.91053 12.0608L25.1567 12.0573C25.4611 12.0574 25.7532 12.1783 25.9685 12.3936C26.1837 12.6089 26.3047 12.9009 26.3047 13.2053C26.3047 13.5098 26.1837 13.8018 25.9685 14.0171C25.7532 14.2323 25.4611 14.3532 25.1567 14.3533L3.91053 14.3499L14.0157 24.4551C14.2305 24.6699 14.3512 24.9612 14.3512 25.2649C14.3512 25.5686 14.2305 25.8599 14.0157 26.0747C13.801 26.2895 13.5097 26.4102 13.2059 26.4102C12.9022 26.4102 12.6109 26.2895 12.3961 26.0747L0.336524 14.0151C0.121743 13.8004 0.00108069 13.5091 0.00108262 13.2053C0.00108074 12.9016 0.121743 12.6103 0.336524 12.3955L12.3961 0.335911C12.6109 0.121131 12.9022 0.000471851 13.2059 0.000471877C13.5097 0.000471904 13.801 0.121133 14.0157 0.335912C14.2305 0.550689 14.3512 0.841987 14.3512 1.14573C14.3512 1.44948 14.2305 1.74078 14.0157 1.95555L3.91053 12.0608Z" fill="#212C33"/>
</svg>
