<svg width="40" height="40" viewBox="0 0 40 40" fill="none" xmlns="http://www.w3.org/2000/svg">
<rect width="40" height="40" rx="20" fill="#EE1A26"/>
<path fill-rule="evenodd" clip-rule="evenodd" d="M14.3839 18.8981C14.1217 18.8981 13.8702 19.0023 13.6848 19.1877C13.4994 19.3731 13.3953 19.6245 13.3953 19.8867C13.3953 20.1489 13.4994 20.4004 13.6848 20.5857C13.8702 20.7711 14.1217 20.8753 14.3839 20.8753L23.0508 20.8739L19.1859 24.7388C19.0007 24.924 18.8967 25.1751 18.8967 25.437C18.8967 25.6988 19.0007 25.9499 19.1859 26.1351C19.3711 26.3203 19.6222 26.4243 19.884 26.4243C20.1459 26.4243 20.397 26.3203 20.5822 26.1351L26.1324 20.5849C26.3176 20.3997 26.4216 20.1486 26.4216 19.8867C26.4216 19.6249 26.3176 19.3737 26.1324 19.1886L20.5822 13.6383C20.397 13.4532 20.1459 13.3491 19.884 13.3491C19.6222 13.3491 19.3711 13.4532 19.1859 13.6383C19.0007 13.8235 18.8967 14.0746 18.8967 14.3365C18.8967 14.5983 19.0007 14.8495 19.1859 15.0346L23.0508 18.8995L14.3839 18.8981Z" fill="white"/>
</svg>
