<svg width="29" height="29" viewBox="0 0 29 29" fill="none" xmlns="http://www.w3.org/2000/svg">
<path fill-rule="evenodd" clip-rule="evenodd" d="M2.29286 12.105C1.72261 12.105 1.17571 12.3315 0.772477 12.7347C0.369246 13.138 0.142715 13.6849 0.142715 14.2551C0.142715 14.8254 0.369246 15.3723 0.772477 15.7755C1.17571 16.1787 1.72261 16.4053 2.29286 16.4053L21.1435 16.4022L12.7373 24.8085C12.3346 25.2112 12.1083 25.7574 12.1083 26.3269C12.1083 26.8965 12.3346 27.4427 12.7373 27.8454C13.14 28.2481 13.6862 28.4743 14.2558 28.4743C14.8253 28.4743 15.3715 28.2481 15.7742 27.8454L27.846 15.7736C28.2487 15.3709 28.475 14.8247 28.475 14.2551C28.475 13.6856 28.2487 13.1394 27.846 12.7367L15.7742 0.664877C15.3715 0.262155 14.8253 0.0359066 14.2558 0.0359064C13.6862 0.0359075 13.14 0.262155 12.7373 0.664877C12.3346 1.0676 12.1083 1.6138 12.1083 2.18334C12.1083 2.75287 12.3346 3.29908 12.7373 3.7018L21.1435 12.108L2.29286 12.105Z" fill="#EE1A26"/>
</svg>
