<svg width="45" height="45" viewBox="0 0 45 45" fill="none" xmlns="http://www.w3.org/2000/svg">
<rect x="0.5" y="0.5" width="44" height="44" rx="22" fill="white"/>
<path fill-rule="evenodd" clip-rule="evenodd" d="M17.2847 17.2368C17.724 16.7974 18.4363 16.7974 18.8757 17.2368L23.2174 21.5785L27.5591 25.9201C27.9984 26.3595 27.9984 27.0718 27.5591 27.5111C27.1197 27.9505 26.4074 27.9505 25.9681 27.5111L17.2847 18.8278C16.8454 18.3884 16.8454 17.6761 17.2847 17.2368Z" fill="#212C33"/>
<path fill-rule="evenodd" clip-rule="evenodd" d="M27.5593 17.237C27.9986 17.6763 27.9986 18.3886 27.5593 18.828L18.8759 27.5113C18.4365 27.9507 17.7242 27.9507 17.2849 27.5113C16.8456 27.072 16.8456 26.3597 17.2849 25.9203L25.9683 17.237C26.4076 16.7976 27.1199 16.7976 27.5593 17.237Z" fill="#212C33"/>
<rect x="0.5" y="0.5" width="44" height="44" rx="22" stroke="#F4F4F4"/>
</svg>
