<svg width="45" height="64" viewBox="0 0 45 64" fill="none" xmlns="http://www.w3.org/2000/svg">
<path d="M7.23853 49.514C6.9012 49.514 6.55653 49.5434 6.20453 49.602C5.85253 49.6607 5.52986 49.7707 5.23653 49.932C4.9432 50.0787 4.7012 50.2914 4.51053 50.57C4.31986 50.834 4.22453 51.1714 4.22453 51.582C4.22453 52.198 4.42986 52.6674 4.84053 52.99C5.2512 53.298 5.74253 53.5327 6.31453 53.694C6.7252 53.8114 7.13587 53.9214 7.54653 54.024C7.97186 54.1267 8.36053 54.2147 8.71253 54.288C9.32853 54.42 9.90787 54.5814 10.4505 54.772C11.0079 54.9627 11.4919 55.2194 11.9025 55.542C12.3132 55.85 12.6359 56.246 12.8705 56.73C13.1199 57.1994 13.2445 57.786 13.2445 58.49C13.2445 59.326 13.0905 60.0374 12.7825 60.624C12.4892 61.2107 12.0859 61.6947 11.5725 62.076C11.0592 62.4574 10.4579 62.736 9.76853 62.912C9.0792 63.088 8.33853 63.176 7.54653 63.176C6.73986 63.176 5.96986 63.0954 5.23653 62.934C4.51786 62.758 3.87253 62.4867 3.30053 62.12C2.72853 61.7387 2.25186 61.2547 1.87053 60.668C1.4892 60.0814 1.2472 59.3774 1.14453 58.556H3.78453C3.90186 58.996 4.09253 59.3627 4.35653 59.656C4.62053 59.9494 4.9212 60.184 5.25853 60.36C5.61053 60.536 5.98453 60.6607 6.38053 60.734C6.77653 60.8074 7.1652 60.844 7.54653 60.844C7.9572 60.844 8.3532 60.8147 8.73453 60.7561C9.11586 60.6827 9.44587 60.5654 9.72453 60.404C10.0032 60.2427 10.2305 60.03 10.4065 59.766C10.5825 59.502 10.6705 59.1574 10.6705 58.732C10.6705 58.1454 10.5165 57.72 10.2085 57.456C9.90053 57.1774 9.48987 56.972 8.97653 56.84C8.27253 56.6347 7.54653 56.4587 6.79853 56.312C6.0652 56.1507 5.36853 55.9454 4.70853 55.696C4.26853 55.5347 3.8652 55.344 3.49853 55.124C3.13186 54.904 2.8092 54.64 2.53053 54.332C2.25186 54.024 2.03186 53.6647 1.87053 53.254C1.72386 52.8287 1.65053 52.3374 1.65053 51.78C1.65053 50.9294 1.81186 50.218 2.13453 49.646C2.4572 49.0594 2.8752 48.59 3.38853 48.238C3.91653 47.886 4.51053 47.6367 5.17053 47.49C5.83053 47.3287 6.5052 47.248 7.19453 47.248C7.92786 47.248 8.62453 47.336 9.28453 47.512C9.94453 47.6734 10.5312 47.93 11.0445 48.282C11.5579 48.634 11.9685 49.0887 12.2765 49.646C12.5992 50.2034 12.7899 50.878 12.8485 51.67H10.3405C10.2819 51.274 10.1572 50.944 9.96653 50.68C9.79053 50.416 9.5632 50.2034 9.28453 50.042C9.02053 49.866 8.71253 49.7414 8.36053 49.668C8.00853 49.58 7.63453 49.5287 7.23853 49.514Z" fill="white"/>
<path d="M20.8677 63V49.734H15.9397V47.446H28.3697V49.734H23.4197V63H20.8677Z" fill="white"/>
<path d="M31.9119 63V47.446H34.4639V54.244H36.4439L41.2399 47.446H44.1879L38.6439 54.992L44.2539 63H41.2619L36.6859 56.51H34.4639V63H31.9119Z" fill="white"/>
<path d="M0.664062 0.666016H27.8061V9.56861H0.664062V0.666016Z" fill="white"/>
<path d="M33.5234 0.666016H44.666V9.56861H33.5234V0.666016Z" fill="white"/>
<path d="M44.668 38L17.5259 38V29.0974L44.668 29.0974V38Z" fill="white"/>
<path d="M44.668 23.6406L0.669319 23.6406L0.66932 14.738L44.668 14.738V23.6406Z" fill="white"/>
<path d="M11.8125 38H0.669986L0.669987 29.0974L11.8125 29.0974L11.8125 38Z" fill="white"/>
</svg>
