<svg width="34" height="34" viewBox="0 0 34 34" fill="none" xmlns="http://www.w3.org/2000/svg">
<rect x="0.5" y="0.5" width="33" height="33" rx="16.5" fill="white"/>
<path d="M17.9235 17.9223C16.7359 19.1089 15.3599 20.2446 14.816 19.7007C14.038 18.9229 13.5579 18.2448 11.8413 19.6242C10.1255 21.0029 11.4437 21.9225 12.1977 22.6756C13.068 23.5457 16.312 22.7221 19.5185 19.517C22.7243 16.3111 23.5458 13.0677 22.6748 12.1976C21.9208 11.4431 21.0055 10.1259 19.6265 11.8413C18.2469 13.5568 18.9243 14.0368 19.7038 14.8154C20.2455 15.3592 19.1104 16.7349 17.9235 17.9223Z" fill="#212C33"/>
<rect x="0.5" y="0.5" width="33" height="33" rx="16.5" stroke="#D1D1D1"/>
</svg>
