<svg width="34" height="34" viewBox="0 0 34 34" fill="none" xmlns="http://www.w3.org/2000/svg">
<rect x="0.5" y="0.5" width="33" height="33" rx="16.5" fill="white"/>
<path fill-rule="evenodd" clip-rule="evenodd" d="M10.1548 12.6428L17 17.0579L23.8452 12.6428C23.7304 12.2893 23.3724 12.0286 22.9535 12.0286H11.0465C10.6276 12.0286 10.2696 12.2893 10.1548 12.6428ZM23.8837 13.8735L17.3201 18.107C17.1279 18.231 16.8721 18.231 16.6799 18.107L10.1163 13.8735V21.1143C10.1163 21.5845 10.5362 21.9714 11.0465 21.9714H22.9535C23.4638 21.9714 23.8837 21.5845 23.8837 21.1143V13.8735ZM9 12.8857C9 11.8474 9.91966 11 11.0465 11H22.9535C24.0803 11 25 11.8474 25 12.8857V21.1143C25 22.1526 24.0803 23 22.9535 23H11.0465C9.91966 23 9 22.1526 9 21.1143V12.8857Z" fill="black"/>
<rect x="0.5" y="0.5" width="33" height="33" rx="16.5" stroke="#D1D1D1"/>
</svg>
