<svg width="40" height="40" viewBox="0 0 40 40" fill="none" xmlns="http://www.w3.org/2000/svg">
<rect width="40" height="40" rx="20" fill="#F4F4F4"/>
<path fill-rule="evenodd" clip-rule="evenodd" d="M19.3756 14.8315C17.0763 14.8315 15.2123 16.6954 15.2123 18.9948C15.2123 21.2941 17.0763 23.1581 19.3756 23.1581C21.675 23.1581 23.5389 21.2941 23.5389 18.9948C23.5389 16.6954 21.675 14.8315 19.3756 14.8315ZM12.8594 18.9948C12.8594 15.3959 15.7768 12.4785 19.3756 12.4785C22.9745 12.4785 25.8919 15.3959 25.8919 18.9948C25.8919 22.5936 22.9745 25.511 19.3756 25.511C15.7768 25.511 12.8594 22.5936 12.8594 18.9948Z" fill="#212C33"/>
<path fill-rule="evenodd" clip-rule="evenodd" d="M22.2814 22.31C22.7408 21.8505 23.4857 21.8505 23.9452 22.31L27.149 25.5138C27.6085 25.9733 27.6085 26.7182 27.149 27.1776C26.6896 27.6371 25.9447 27.6371 25.4853 27.1776L22.2814 23.9737C21.8219 23.5143 21.8219 22.7694 22.2814 22.31Z" fill="#212C33"/>
</svg>
