<svg width="20" height="21" viewBox="0 0 20 21" fill="none" xmlns="http://www.w3.org/2000/svg">
<path fill-rule="evenodd" clip-rule="evenodd" d="M9.08333 3.75C5.86167 3.75 3.25 6.36167 3.25 9.58333C3.25 12.805 5.86167 15.4167 9.08333 15.4167C12.305 15.4167 14.9167 12.805 14.9167 9.58333C14.9167 6.36167 12.305 3.75 9.08333 3.75ZM0.25 9.58333C0.25 4.70482 4.20482 0.75 9.08333 0.75C13.9618 0.75 17.9167 4.70482 17.9167 9.58333C17.9167 14.4618 13.9618 18.4167 9.08333 18.4167C4.20482 18.4167 0.25 14.4618 0.25 9.58333Z" fill="#9A9A9A"/>
<path fill-rule="evenodd" clip-rule="evenodd" d="M13.2018 13.7018C13.7876 13.1161 14.7374 13.1161 15.3232 13.7018L19.3107 17.6893C19.8964 18.2751 19.8964 19.2249 19.3107 19.8107C18.7249 20.3964 17.7751 20.3964 17.1893 19.8107L13.2018 15.8232C12.6161 15.2374 12.6161 14.2876 13.2018 13.7018Z" fill="#9A9A9A"/>
</svg>
