<svg width="79" height="79" viewBox="0 0 79 79" fill="none" xmlns="http://www.w3.org/2000/svg">
<path fill-rule="evenodd" clip-rule="evenodd" d="M4.69549 22.7631C4.48109 22.9954 4.35547 23.3032 4.35547 23.5957C4.35547 23.8882 4.48109 24.196 4.69549 24.4283C5.00892 24.7682 5.13842 24.7969 6.35753 24.7969H7.67953V34.4065V44.016H6.35753C5.13842 44.016 5.00892 44.0447 4.69549 44.3847C4.24564 44.8722 4.24564 45.5623 4.69549 46.0498L5.03538 46.4184H11.3436H17.6517V47.8516C17.6517 49.1732 17.6782 49.3136 17.9918 49.6534L18.3316 50.022H23.1918H28.052L28.3919 49.6534C28.7055 49.3136 28.7319 49.1732 28.7319 47.8516V46.4184H36.7546H44.7773L44.5107 47.2405C44.3642 47.6926 44.2442 48.4039 44.2442 48.8208C44.2442 49.2378 44.3642 49.949 44.5107 50.4011L44.7773 51.2232H24.9064H5.03538L4.69549 51.5918C4.24564 52.0794 4.24564 52.7694 4.69549 53.257L5.03538 53.6256H39.8122H74.5889L74.9288 53.257C75.3787 52.7694 75.3787 52.0794 74.9288 51.5918L74.5889 51.2232H69.6657C66.958 51.2232 64.7426 51.1861 64.7426 51.1406C64.7426 51.0953 64.8402 50.8537 64.9593 50.6038C65.3303 49.8262 65.3705 48.2768 65.0456 47.2818L64.7636 46.4184H65.2882C65.8027 46.4184 65.8324 46.4506 66.8256 48.0789C67.3825 48.9921 67.9479 49.8029 68.0819 49.8807C68.2159 49.9583 69.2362 50.022 70.3492 50.022C72.3132 50.022 72.3829 50.0112 72.7128 49.6534C73.1626 49.1659 73.1626 48.4758 72.7128 47.9882C72.3916 47.6399 72.2858 47.6196 70.7934 47.6196H69.2139L68.7333 46.8313C68.4689 46.3979 68.1414 45.8572 68.0052 45.6301L67.7578 45.2172H68.1893C68.4861 45.2172 68.6207 45.2896 68.6207 45.4492C68.6207 45.5768 68.7738 45.8471 68.9607 46.0498C69.2979 46.4154 69.3221 46.4184 71.9448 46.4184C74.5675 46.4184 74.5917 46.4154 74.9288 46.0498C75.2599 45.6911 75.2689 45.621 75.2689 43.4154C75.2689 41.2099 75.2599 41.1398 74.9288 40.7811C74.5917 40.4155 74.5675 40.4125 71.9448 40.4125C69.3221 40.4125 69.2979 40.4155 68.9607 40.7811C68.6815 41.0836 68.6207 41.2983 68.6207 41.9823V42.8148H68.0667H67.5127V32.9733V23.1316L67.1727 22.7631L66.8328 22.3945H35.9341H5.03538L4.69549 22.7631ZM22.0838 34.4065V44.016H15.9897H9.89558V34.4065V24.7969H15.9897H22.0838V34.4065ZM36.4881 34.4065V44.016H30.394H24.2999V34.4065V24.7969H30.394H36.4881V34.4065ZM50.8924 34.4065V44.016H44.7983H38.7041V34.4065V24.7969H44.7983H50.8924V34.4065ZM65.2967 34.4065V44.016H59.2025H53.1084V34.4065V24.7969H59.2025H65.2967V34.4065ZM12.4516 28.7691C12.2372 29.0014 12.1116 29.3092 12.1116 29.6017C12.1116 29.8942 12.2372 30.202 12.4516 30.4343L12.7915 30.8029H15.9897H19.1879L19.5277 30.4343C19.9776 29.9467 19.9776 29.2567 19.5277 28.7691L19.1879 28.4005H15.9897H12.7915L12.4516 28.7691ZM26.8559 28.7691C26.6415 29.0014 26.5159 29.3092 26.5159 29.6017C26.5159 29.8942 26.6415 30.202 26.8559 30.4343L27.1958 30.8029H30.394H33.5921L33.932 30.4343C34.1464 30.202 34.2721 29.8942 34.2721 29.6017C34.2721 29.3092 34.1464 29.0014 33.932 28.7691L33.5921 28.4005H30.394H27.1958L26.8559 28.7691ZM41.2602 28.7691C41.0458 29.0014 40.9202 29.3092 40.9202 29.6017C40.9202 29.8942 41.0458 30.202 41.2602 30.4343L41.6001 30.8029H44.7983H47.9964L48.3363 30.4343C48.5507 30.202 48.6763 29.8942 48.6763 29.6017C48.6763 29.3092 48.5507 29.0014 48.3363 28.7691L47.9964 28.4005H44.7983H41.6001L41.2602 28.7691ZM55.6645 28.7691C55.4501 29.0014 55.3245 29.3092 55.3245 29.6017C55.3245 29.8942 55.4501 30.202 55.6645 30.4343L56.0044 30.8029H59.2025H62.4007L62.7406 30.4343C62.955 30.202 63.0806 29.8942 63.0806 29.6017C63.0806 29.3092 62.955 29.0014 62.7406 28.7691L62.4007 28.4005H59.2025H56.0044L55.6645 28.7691ZM12.4516 33.5739C12.2372 33.8062 12.1116 34.114 12.1116 34.4065C12.1116 34.699 12.2372 35.0068 12.4516 35.2391L12.7915 35.6077H15.9897H19.1879L19.5277 35.2391C19.9776 34.7515 19.9776 34.0614 19.5277 33.5739L19.1879 33.2053H15.9897H12.7915L12.4516 33.5739ZM26.8559 33.5739C26.6415 33.8062 26.5159 34.114 26.5159 34.4065C26.5159 34.699 26.6415 35.0068 26.8559 35.2391L27.1958 35.6077H30.394H33.5921L33.932 35.2391C34.1464 35.0068 34.2721 34.699 34.2721 34.4065C34.2721 34.114 34.1464 33.8062 33.932 33.5739L33.5921 33.2053H30.394H27.1958L26.8559 33.5739ZM41.2602 33.5739C41.0458 33.8062 40.9202 34.114 40.9202 34.4065C40.9202 34.699 41.0458 35.0068 41.2602 35.2391L41.6001 35.6077H44.7983H47.9964L48.3363 35.2391C48.5507 35.0068 48.6763 34.699 48.6763 34.4065C48.6763 34.114 48.5507 33.8062 48.3363 33.5739L47.9964 33.2053H44.7983H41.6001L41.2602 33.5739ZM55.6645 33.5739C55.4501 33.8062 55.3245 34.114 55.3245 34.4065C55.3245 34.699 55.4501 35.0068 55.6645 35.2391L56.0044 35.6077H59.2025H62.4007L62.7406 35.2391C62.955 35.0068 63.0806 34.699 63.0806 34.4065C63.0806 34.114 62.955 33.8062 62.7406 33.5739L62.4007 33.2053H59.2025H56.0044L55.6645 33.5739ZM12.4516 38.3787C12.2372 38.611 12.1116 38.9188 12.1116 39.2113C12.1116 39.5037 12.2372 39.8116 12.4516 40.0438L12.7915 40.4125H15.9897H19.1879L19.5277 40.0438C19.9776 39.5563 19.9776 38.8662 19.5277 38.3787L19.1879 38.0101H15.9897H12.7915L12.4516 38.3787ZM26.8559 38.3787C26.6415 38.611 26.5159 38.9188 26.5159 39.2113C26.5159 39.5037 26.6415 39.8116 26.8559 40.0438L27.1958 40.4125H30.394H33.5921L33.932 40.0438C34.1464 39.8116 34.2721 39.5037 34.2721 39.2113C34.2721 38.9188 34.1464 38.611 33.932 38.3787L33.5921 38.0101H30.394H27.1958L26.8559 38.3787ZM41.2602 38.3787C41.0458 38.611 40.9202 38.9188 40.9202 39.2113C40.9202 39.5037 41.0458 39.8116 41.2602 40.0438L41.6001 40.4125H44.7983H47.9964L48.3363 40.0438C48.5507 39.8116 48.6763 39.5037 48.6763 39.2113C48.6763 38.9188 48.5507 38.611 48.3363 38.3787L47.9964 38.0101H44.7983H41.6001L41.2602 38.3787ZM55.6645 38.3787C55.4501 38.611 55.3245 38.9188 55.3245 39.2113C55.3245 39.5037 55.4501 39.8116 55.6645 40.0438L56.0044 40.4125H59.2025H62.4007L62.7406 40.0438C62.955 39.8116 63.0806 39.5037 63.0806 39.2113C63.0806 38.9188 62.955 38.611 62.7406 38.3787L62.4007 38.0101H59.2025H56.0044L55.6645 38.3787ZM73.0528 43.4154V44.016H71.9448H70.8368V43.4154V42.8148H71.9448H73.0528V43.4154ZM26.5159 47.019V47.6196H23.1918H19.8678V47.019V46.4184H23.1918H26.5159V47.019ZM49.5627 46.6277C50.1687 46.9022 50.7605 47.7608 50.8517 48.4974C51.1327 50.7684 48.631 52.1103 47.1365 50.4902C45.4185 48.6277 47.3146 45.6094 49.5627 46.6277ZM56.7805 46.9623C56.6653 47.2614 56.571 47.5316 56.571 47.5629C56.571 47.5941 55.7607 47.6196 54.7705 47.6196C53.7802 47.6196 52.9699 47.5941 52.9699 47.5629C52.9699 47.5316 52.8756 47.2614 52.7604 46.9623L52.5507 46.4184H54.7705H56.9902L56.7805 46.9623ZM61.751 46.6277C62.3569 46.9022 62.9488 47.7608 63.0399 48.4974C63.3209 50.7684 60.8193 52.1103 59.3247 50.4902C57.6067 48.6277 59.5028 45.6094 61.751 46.6277ZM48.154 47.7201C48.0572 47.7624 47.8808 48.0009 47.7619 48.2499C47.1833 49.4629 48.5606 50.6116 49.4443 49.6534C50.3161 48.7085 49.3177 47.2126 48.154 47.7201ZM60.3423 47.7201C60.2455 47.7624 60.069 48.0009 59.9502 48.2499C59.3715 49.4629 60.7488 50.6116 61.6326 49.6534C62.5043 48.7085 61.506 47.2126 60.3423 47.7201ZM56.7487 50.5851L56.956 51.1481L54.8049 51.1896C53.622 51.2124 52.6289 51.2038 52.5983 51.1707C52.5676 51.1375 52.6503 50.8654 52.7818 50.5662L53.0212 50.022H54.7813H56.5414L56.7487 50.5851ZM4.69549 55.1954C4.48109 55.4277 4.35547 55.7355 4.35547 56.028C4.35547 56.3205 4.48109 56.6283 4.69549 56.8606L5.03538 57.2292H39.8122H74.5889L74.9288 56.8606C75.3787 56.373 75.3787 55.6829 74.9288 55.1954L74.5889 54.8268H39.8122H5.03538L4.69549 55.1954Z" fill="#EE1A26"/>
</svg>
