<svg width="261" height="495" viewBox="0 0 261 495" fill="none" xmlns="http://www.w3.org/2000/svg">
<path d="M35.3668 201.103L34.4244 201.339L34.8956 199.922L34.7778 198.859L35.0134 195.08L35.4846 194.254L35.6024 192.482L35.838 191.774L36.6625 192.01L37.3693 193.191L37.1337 194.136L36.1913 195.198V196.025L35.838 197.324V198.151L36.1913 198.859V199.686L35.3668 201.103ZM8.50992 141.35L8.15656 141.823L8.39216 142.413V143.358L8.62772 144.184L8.50992 144.893L8.74553 145.956L8.50992 146.31L7.44979 146.9L4.62276 145.956H3.916L3.09146 145.011L2.1491 144.421L2.0313 143.358L1.56013 143.004L2.1491 142.177L5.56509 137.099L6.27186 137.335L6.97863 138.398L7.33199 138.634L7.56759 139.815L8.50992 141.35ZM61.5169 123.991L58.8076 124.346L59.5144 123.637L59.6322 123.047L61.0457 122.456L62.2236 121.511L62.3414 121.748L61.8703 122.574L61.7525 123.755L61.5169 123.991ZM241.505 117.024L241.387 117.26L239.385 118.559L238.442 119.74L237.264 119.504L236.911 119.268L234.084 121.393H230.55L230.197 121.984L229.608 122.102L229.137 121.275L228.548 119.504V118.323L228.783 117.969L229.961 117.497L230.668 116.906L230.904 116.434L231.139 114.662L231.375 114.072L232.199 113.245L234.202 113.127L236.322 113.836L237.264 114.662L237.971 114.899L238.678 115.843L239.385 115.961L240.091 114.899L239.856 114.308L240.091 113.127L240.563 112.537L243.272 112.183L243.625 112.891L243.507 113.363L242.565 113.482L241.858 113.954L241.387 113.482L240.798 114.19L241.505 117.024ZM52.2112 100.02L52.329 100.964H50.9155L50.4443 100.61L49.8554 99.6652L49.7375 98.9567L49.8554 98.3663L50.3265 97.8939L52.5646 98.012L53.2713 98.7206V99.6652L52.2112 100.02ZM55.8628 97.8939L57.3941 99.0748L57.5119 99.6652L56.8051 100.374L56.5696 99.7833L55.9806 100.256L55.745 100.846L54.9205 101.555H54.4493L53.3891 100.846L53.9781 100.02L54.4493 98.1301L54.6849 97.8939H55.8628ZM64.1083 87.3841L64.2261 87.9745L63.8727 88.8012L63.2838 89.2735L62.6948 89.1554L62.2236 88.4469H61.2813L61.0457 89.2735L61.9881 90.2182L62.9304 90.5725L62.3414 91.0448L61.2813 90.2182L60.1034 90.5725L59.3966 90.1001L58.572 90.3363L58.1009 90.1001L57.9831 89.3916L57.5119 88.8012L57.9831 88.4469L58.3365 88.8012L59.6322 89.1554L60.1034 88.9193V88.3288L59.6322 87.9745L59.8678 87.3841L59.5144 86.6756L59.75 86.4394L60.5745 86.7937L60.4567 87.3841L61.1635 87.266L62.6948 86.3213L63.5194 86.2032L64.1083 87.3841ZM104.747 56.9174V57.8621H104.04V57.0355L104.747 56.9174ZM137.022 56.4451L134.784 57.1536L134.431 56.6813L134.784 55.6185L137.847 53.8472L138.789 53.611L138.907 54.0833L137.965 54.91L137.022 56.4451ZM123.358 51.6035L122.652 51.8397L122.063 51.1311L122.652 49.7141L123.123 50.4226L123.358 51.6035ZM121.709 48.5332L120.885 49.2417L121.238 50.0683L120.885 50.895L120.296 51.013L119.118 50.6588L118.764 50.3045L118.293 50.7769L117.586 50.0683L118.293 49.2417L120.296 50.0683L120.531 49.8322L120.178 48.6513L121.238 47.9428L121.709 48.5332ZM131.368 47.1161L133.842 48.4151L134.077 49.0056L133.371 49.4779L132.782 48.4151L132.311 48.1789L131.839 48.7694L132.428 50.0683L131.957 50.7769L132.193 51.8397L131.604 52.4301L131.957 53.0205L131.486 53.1386L130.661 51.8397H128.541L127.128 51.1311L126.892 50.5407L124.183 50.4226L123.947 49.8322L124.301 49.2417V48.0608L124.536 47.7066L125.361 47.8247L126.185 49.2417L126.421 49.0056L127.246 47.5885L127.952 47.2342L128.306 47.9428L129.484 47.7066L129.837 47.9428V49.3598L130.308 49.0056L130.897 47.3523L131.368 47.1161ZM134.666 45.9353L134.902 46.2895L134.195 47.4704L133.724 46.6438H132.428V45.9353L133.489 46.0534L134.666 45.9353ZM135.844 45.581L136.198 46.0534H136.905L137.14 47.1161L136.551 47.9428L135.609 48.1789L136.905 49.2417L135.962 49.8322L134.902 51.1311L134.666 51.013L134.549 49.7141L134.666 48.6513L135.255 47.2342L135.727 46.6438L135.373 46.0534L135.844 45.581ZM255.876 44.282L256.229 44.6363H257.054V45.4629L255.051 45.2267L254.933 44.9906L255.522 43.2193L255.994 42.865L256.229 43.4554L255.876 44.282ZM250.457 37.4329L250.222 37.9053L250.693 38.4957L250.457 38.9681L250.811 39.3224L250.457 39.7947L250.693 40.2671L251.517 40.0309L251.871 40.6213L250.928 41.0937L251.164 42.3926L250.811 42.865L250.104 42.5107L249.515 41.566L248.926 40.0309L248.572 39.6766L247.512 39.5585L246.57 37.551L246.452 36.9606L247.748 36.7244L248.69 37.4329L248.926 37.1968L249.044 36.134L249.515 36.2521L249.75 36.7244L250.339 36.9606L250.457 37.4329ZM202.044 15.8229L201.691 16.6495L201.102 15.7048L201.926 14.9962L202.398 14.8782L202.751 15.4686L202.044 15.8229ZM238.678 121.748L240.209 123.047V123.637L239.856 124.582L239.267 125.054L238.325 124.936L237.971 125.172L237.736 126.471L237.264 126.825L236.558 128.479L235.851 129.187L233.259 129.305L233.377 129.778L234.908 131.077L235.733 131.195L236.322 132.376L236.204 133.084L235.026 134.265L235.144 134.855L237.5 135.092L237.736 135.328L238.207 137.571L238.56 138.162L238.442 138.989L237.736 139.343L237.618 139.815L238.089 140.878L237.382 141.705L236.558 142.177L236.675 143.004L237.029 143.594V144.184L236.44 145.011L236.793 147.373L237.147 148.199L237.5 148.554L238.442 148.672V149.971L239.385 150.089L240.916 150.797L241.505 151.742L241.387 152.451L240.798 153.041L240.445 153.513L239.856 154.104L239.974 155.167L242.447 156.466L243.272 156.347L244.096 157.41L243.861 158.827L244.568 159.063L244.803 160.244L245.392 160.835H246.688V177.839V177.958L249.161 179.611L249.633 180.437L250.457 181.146L251.164 180.674L251.871 181.736L251.753 182.327L250.693 183.153L250.457 183.98L250.928 184.689L249.986 185.751L249.161 186.106L248.69 186.932H247.984L247.748 186.106L247.277 185.869L246.923 186.342L246.688 187.168L246.334 187.641L243.154 188.585L242.212 189.766L241.74 190.475L239.856 190.711L239.267 190.947L238.678 191.538L237.853 191.774L237.147 191.42L236.793 191.774H235.969L235.497 192.364L235.615 193.427L235.144 193.781L234.32 193.899L233.731 194.608L233.377 194.726L232.788 195.435L233.024 197.088L232.435 197.324L232.906 197.914V198.859L233.731 199.331L233.966 199.686L233.731 200.158L231.964 200.276L231.139 200.512H230.668L229.726 200.985L229.137 201.103L228.783 201.575L229.019 202.638L228.548 203.583L227.252 204.291L226.663 204.882V205.472L227.252 206.771V207.834L228.43 208.542L228.312 209.133L227.841 209.723L227.488 211.14L227.723 211.731L227.252 212.793L226.427 214.092L225.603 214.329L224.189 213.856L223.718 212.793H221.716L220.773 212.439H219.478L218.417 213.03L217.475 214.565L217.357 215.628L216.533 216.218L215.708 216.1L210.879 218.107L209.583 219.17L208.758 219.524L207.109 219.643L206.403 218.58H205.814L204.989 219.879L204.636 220.942L203.811 221.414V222.24L209.112 233.105L209.23 233.341V241.607L209.112 244.205L209.23 247.629L209.112 250.227V253.534L208.758 256.84L208.641 260.383L208.523 263.099L207.698 264.87L206.285 264.28L205.578 264.752L204.989 265.697L204.282 266.169L203.104 266.523L202.633 268.059L201.926 268.885L199.335 269.239L199.453 269.712L200.395 270.893L201.22 270.656L202.044 271.365L202.987 271.601L203.222 272.31L202.633 273.136L202.987 273.609L203.693 273.254L204.047 273.727L203.693 274.317L203.811 274.908L204.518 275.262L204.4 275.97L204.518 277.506L204.871 277.978V279.041L204.989 279.395L204.4 280.104L204.047 280.222L203.458 281.284L203.34 281.993L203.693 283.528L203.458 284.591L203.929 285.299L205.107 285.417L205.696 286.716L206.167 288.015V290.968L206.049 291.204V293.093L205.696 293.566L205.931 294.274L207.345 294.746V295.219L207.934 295.573V296.282L209.583 296.99V297.462L209.112 298.171L208.758 299.352L208.405 299.47L207.345 298.998L206.756 299.352L206.638 299.824L205.931 300.415L205.814 301.123L205.931 301.832L205.46 302.422L204.753 303.603L204.047 303.721L203.811 304.43L202.869 305.02L202.515 305.729L203.34 306.909L203.576 307.618L204.047 307.972L203.458 308.327L202.987 307.618L202.28 307.972L202.751 309.035L201.809 309.153L201.455 310.098V310.924L201.691 311.515L201.455 312.105L200.513 311.987L200.748 312.578L200.631 313.05L201.22 314.113L201.102 314.821H202.28L202.987 314.349L203.576 314.939L203.222 315.884L204.164 316.238L204.636 315.884L205.578 315.53H206.874V314.467L207.698 314.821L208.052 316.002H209.112L210.29 316.829L210.761 317.301L211.585 317.419L211.703 318.246L212.292 318.836H212.646L214.177 318.01L214.648 318.246L215.001 318.954L215.944 319.545L216.297 320.017L217.122 320.135L217.475 319.309L218.535 319.073L219.006 319.663L219.242 320.844L219.713 322.379L219.242 323.088H218.535L218.182 323.324L217.004 323.088L216.179 323.324L215.708 322.969L215.001 323.206L214.53 323.914L214.412 325.095L214.059 325.449L213.352 325.213L212.763 325.331L212.292 324.032L211.468 323.796L210.996 324.505L210.408 324.859L209.819 324.032L208.287 323.088L207.816 323.442L207.698 324.268L208.523 325.685L207.816 326.866L207.227 328.165L207.698 329.11L206.991 330.763L206.52 330.881L206.403 331.708L206.874 331.944L207.463 333.007L207.934 333.479L207.463 334.66L206.403 334.542L205.814 334.306L205.342 335.132V335.959L205.696 336.195L205.46 337.376L205.578 337.73L204.753 338.439H203.693L203.576 338.793L204.164 340.446L204.282 341.273L205.814 341.982L206.049 342.926L206.52 343.753L206.285 344.579L206.991 345.17L208.523 345.997L207.934 346.233L207.463 347.177L207.934 347.768L206.638 349.539L205.814 349.421V349.775L206.167 350.366L205.578 350.602L205.107 351.547L205.814 351.665L205.931 352.609L205.46 353.908L205.578 354.145V354.971L204.282 355.444L203.693 356.27L203.104 356.624L202.869 357.097L201.926 358.042V358.75L202.162 359.577L202.28 360.403L201.809 360.521L201.337 361.23L200.631 360.994L199.806 361.584L199.335 362.293L198.039 362.883L197.45 363.71L197.215 364.536H196.037L194.977 364.891L194.623 365.363L193.799 365.599L194.859 366.19L195.33 367.961L195.212 368.315H194.152L193.21 369.614L192.385 369.968L192.621 370.441L192.15 371.622L192.621 372.566L191.325 373.393L191.678 374.22L192.385 374.928L191.796 376.345L192.032 376.699L192.15 377.762L192.621 378.471L192.974 380.006L193.681 380.242L194.505 381.423L195.33 381.659L196.037 381.541L196.979 381.777L197.686 381.541L198.039 382.25L198.864 382.131L198.746 383.194L198.393 384.139L198.864 385.556L198.51 387.563L198.864 388.154L198.039 388.508L197.45 388.154L196.743 388.036L195.566 388.272L195.33 389.335L194.505 389.571L193.799 390.398L193.916 391.342L194.388 391.815L194.505 392.877L195.212 393.822H196.154L196.626 393.586L196.979 394.294L197.097 395.357L196.743 396.066L197.45 396.656L197.686 397.601L197.568 398.309L197.921 398.9L197.45 399.49L196.272 399.845L195.683 400.671L194.977 401.026L194.505 401.734L194.152 401.97L193.563 403.033L194.388 404.45L193.799 405.159L192.621 405.395L192.267 405.867L191.678 405.749L191.325 406.103L190.854 405.159L190.736 404.45H190.147L189.558 403.86L187.556 403.623V402.561L187.202 401.852H186.496L185.789 401.498L185.2 401.616L184.964 401.026L184.14 400.317L183.433 399.963L182.491 397.837L182.373 397.247L183.079 397.129V396.656L182.373 396.302L181.784 396.656H181.313L180.606 395.83L179.663 396.656L179.428 397.247L178.839 397.601L177.661 397.483L176.601 398.191L176.247 399.49L176.601 400.435L176.483 401.262L177.308 401.852L177.425 403.269L177.072 404.332L176.247 405.277L175.541 405.513L175.305 406.458L174.481 407.284L173.303 407.638L172.714 407.993L171.654 408.229L170.947 408.819L170.711 409.646L170.122 410.473L169.887 411.417H168.12L167.531 412.598L166.824 412.952L167.177 413.661L166.942 414.724L165.764 416.259L164.822 416.613L165.175 417.676L164.468 419.093L164.704 419.683L165.646 420.628V421.455L165.293 422.045H164.822L164.468 422.517L163.879 422.636L163.29 421.691L161.759 420.864L161.052 418.739L161.288 418.266L160.581 417.794L160.699 417.203L159.639 416.377L159.167 415.078V413.897L158.814 413.425L157.165 413.661L156.458 413.307L155.987 413.897L155.869 414.487L154.927 415.55L154.809 416.495L154.338 417.322H153.749L152.807 417.794L151.864 417.676L151.04 418.384H150.451L149.744 417.912L149.626 417.44L148.566 417.558L147.977 417.44L143.854 416.967L143.501 417.085L139.614 426.414L139.26 427.359L140.203 428.658L141.145 428.776L140.792 429.367L140.321 429.603L140.085 430.547L140.674 431.02L141.263 430.784L142.205 431.138L142.087 432.083L142.323 432.673L142.205 433.145V434.208H143.03L143.148 435.861L142.794 436.334L141.027 436.452L140.674 436.806L140.91 438.223L140.792 439.05L139.849 439.64L139.614 440.467L139.26 440.939L138.554 440.349L137.493 440.231L137.022 441.175L136.551 441.293L136.316 443.419L135.491 443.891L134.902 444.954L135.255 445.427L134.784 446.135L135.609 447.08L135.255 447.316L136.08 450.386L135.844 450.74L134.549 451.213L134.195 452.984L134.313 453.456L133.606 454.283L134.549 455.464L134.195 457.117L133.489 458.416L133.606 458.888L133.371 459.951L133.489 460.778H132.9L131.839 460.188L130.897 460.424L129.601 460.188L129.13 461.605L128.541 462.313L127.834 461.959L127.246 462.431L126.892 463.022L126.774 463.73L126.892 464.321L127.952 464.793L128.659 465.265L129.13 466.092L129.837 466.446L129.719 467.273L130.19 467.627L132.311 469.989L133.017 471.17L133.724 471.406L134.313 471.76L134.431 472.114L133.96 472.941L133.489 473.059L132.311 472.941L131.957 472.705L131.839 472.233L131.015 472.114L130.661 473.295L129.601 474.004L128.541 473.531H127.834L127.599 473.295L126.774 473.65L126.539 474.122L124.772 475.067L124.065 474.712L123.83 474.004L123.005 474.712L122.298 475.067L121.827 474.712L120.06 474.949L119 475.775L119.589 476.247L119.707 476.838L119 477.547L118.882 478.255L119 478.964L118.411 480.735L117.822 480.971L117.469 480.735L116.762 480.853L115.702 481.68V482.506L115.113 483.687L114.406 484.159L114.524 484.75L112.993 486.403L112.875 487.23L112.404 488.056L112.286 489.001L111.343 489.71H110.637L109.93 490.182L108.988 491.245L108.399 491.481L107.81 492.426L106.514 493.016L106.161 493.724L105.689 493.488L104.865 493.606L103.687 494.315L103.098 494.079H101.449L100.742 494.315L99.7997 494.197L99.2107 493.488L98.2684 493.252H97.0904L96.6193 492.898L93.91 493.016L93.321 492.426L91.4364 492.78L90.9652 491.835L90.7296 491.008L89.5517 490.418L88.7271 489.591L89.6695 487.702L90.3762 486.285L91.083 485.34L91.9075 484.75L92.6143 484.514L92.8499 483.805L94.3812 482.742L94.9702 482.152L95.5591 481.207V480.263L95.2057 478.727L95.6769 478.373H96.3837L97.4438 477.665L98.3862 476.72L98.7395 476.129L98.8573 475.303L98.0328 474.122L97.4438 473.768H96.6193L96.0303 473.295V472.705L95.6769 471.406L95.0879 470.343L94.9702 469.516L95.6769 468.572L96.0303 467.745V466.564L94.1456 463.022L93.7922 461.132L93.321 460.66L91.5541 459.361L92.0253 457.235L91.4364 456.645L90.494 456.763L90.2584 455.818L88.6093 456.291L88.8449 455.464L88.4915 454.401L88.0203 453.929H87.1958L86.7246 452.63L86.2534 453.22L84.6043 453.456L84.0154 453.929L82.7197 454.519L82.0129 453.929L81.1884 454.047L81.0705 454.755L80.4816 454.637L79.4215 454.755L79.0681 453.575L78.2435 453.456L78.4791 452.866L77.6546 452.158L77.5368 450.859L76.5944 450.15H76.1233L75.6521 449.323L75.0631 448.851L75.6521 447.906L77.0656 446.489L78.3613 445.545L79.1859 445.427L80.0104 444.718L80.5994 444.6L80.835 443.773L81.1884 443.183L80.3638 442.829L80.246 442.12L79.7748 440.939L79.8926 440.467L79.4215 439.758L78.8325 439.64V438.932L78.3613 438.814L78.2435 437.515H77.3012L76.9478 436.688L76.0055 436.57L74.9453 435.743L75.1809 434.68L74.5919 434.326L74.3564 433.854V433.263L75.4165 433.145L75.8877 431.846L75.2987 431.61L75.1809 430.429L75.2987 429.721L75.8877 427.477L74.4741 426.887V426.532L75.2987 425.352L76.0055 425.115L76.4766 423.816L76.9478 422.399L77.5368 422.045L77.8902 421.455L78.4791 421.219L79.1859 419.801L79.8926 420.038L80.7172 419.565L80.5994 417.322L80.835 416.259L80.3638 415.196L76.83 415.078L75.6521 414.015L71.7649 413.07L71.5293 412.834L71.1759 411.653L70.7048 410.827L69.998 407.52L70.1158 407.166L73.414 401.734L73.5318 401.616L76.4766 400.317L76.7122 399.963L75.1809 397.601L74.9453 396.184L70.1158 396.656L69.7624 396.302L67.2888 391.224L66.9354 390.634L64.8151 390.516L64.4617 390.043L63.9905 387.918L63.8727 387.682L60.5745 386.619L55.745 386.501L52.2112 387.445L46.3216 387.327L45.1436 386.265L45.7326 385.084L45.8504 382.84L46.3216 382.131L46.5572 381.423L47.0283 380.596L46.4394 379.061L43.8479 374.101L43.1412 373.157L45.8504 370.913H45.9682L53.5069 366.544L53.7425 366.308L53.2713 365.363V365.009L54.2137 364.182L55.6272 363.828L55.745 363.119L55.6272 362.529L54.9205 361.82L53.8603 362.175L52.0934 361.348L51.3867 360.167L50.5621 360.521L49.8554 360.167L49.2664 359.34L48.5596 358.868L47.9706 358.632L47.3817 358.868L46.2038 358.396L45.8504 357.451L45.2614 356.979L45.0258 356.388L45.2614 355.444L44.4369 352.728L44.5547 352.373L46.675 349.067L47.6173 348.358L47.9706 347.65L47.7351 347.059L48.3241 346.115L49.2664 345.406V344.816L49.7375 344.107L50.2088 342.808L51.0333 341.627L51.8578 341.391L52.4468 340.683L52.2112 339.62L52.918 338.675L52.0934 337.14L52.329 336.077L52.6824 335.132L53.3891 334.07L53.2713 333.479H52.2112L51.6222 333.833L51.2689 332.771L51.3867 331.944L50.6799 330.999L49.2664 330.763L48.913 330.055L49.3842 329.582L49.8554 329.818L50.5621 328.874L51.0333 328.047L51.3867 326.276L51.74 325.331L52.5646 324.15L53.5069 323.206L55.5094 322.143L55.745 321.434L55.5094 320.962L56.0984 319.191V318.364L55.6272 317.537L55.3916 316.002L54.8027 315.412V314.585L55.2738 313.05L54.5671 311.869L54.9205 310.216L54.5671 309.625L53.0358 308.917H52.329L51.8578 309.507L51.1511 309.744L49.9731 310.216H49.6198L49.2664 309.271L48.2063 309.035L48.0885 308.563L48.3241 307.854L47.9706 307.146H47.2639L44.6725 307.854L43.6123 307.736L43.2589 307.028L44.0835 306.083V305.374L43.7301 305.02L43.6123 304.193L44.0835 302.894L45.1436 302.186L45.6148 300.533L45.0258 298.998L45.2614 298.289L44.9081 297.108L44.4369 296.282L42.7878 295.455L43.3767 295.101L43.6123 293.802L42.5522 293.566L41.8454 292.621L41.492 291.912L41.0209 291.676L39.3718 291.794L38.3116 292.267L37.7227 291.322V289.787L36.6625 288.488L36.0736 287.071L36.6625 285.654L37.7227 285.063L37.8405 284.591L37.0159 283.41L36.4269 281.993L35.838 281.048L35.0134 280.576L34.5422 279.749V277.624L34.66 276.915L35.249 276.797L36.0736 275.97L35.9558 275.38L35.249 274.199L35.1312 273.136L34.1889 272.31V271.719L32.422 270.184L27.4746 265.106L27.9458 264.752L28.6526 263.807L29.1237 263.453L29.006 262.745L28.417 261.918L28.6526 261.091L29.4771 259.674L29.006 258.966L28.417 259.084L27.3568 258.021L27.0035 257.194L27.3568 255.777L26.5323 255.423L25.7077 254.36L25.1188 253.061L24.6476 252.235L25.001 251.408L25.7077 251.762L26.5323 251.172L27.0035 251.408L29.2415 251.526L29.3593 251.29L29.4771 249.283L29.2415 248.574L29.4771 246.921H30.6551L30.5373 246.094L30.7729 245.386L31.5974 244.913L31.7152 244.441L31.5974 243.614L31.833 242.197L31.4796 240.426L31.1262 239.836L30.1839 239.009L30.5373 238.3L31.0084 238.419L31.5974 237.946H32.8931L34.1889 237.238L34.0711 236.765L32.5398 235.584L32.422 234.522L31.9508 234.64L30.8906 234.167L30.5373 233.577V231.806L30.0661 230.507L29.3593 230.034L29.006 229.09L29.8305 228.735L30.1839 228.027L29.8305 226.964L29.3593 226.846L28.417 227.082L25.8255 226.61L24.8832 225.547V225.075L25.2366 224.484L25.8255 223.894L26.0611 223.067L25.001 221.414L24.2942 221.06L23.823 221.886L23.7053 224.366L23.1163 224.956L22.5273 225.075L21.585 224.484L20.996 224.838L20.5248 225.429L18.9935 226.019L17.8156 224.956L17.3444 224.012L15.342 223.776L13.8106 222.949L12.1615 223.067L11.5726 223.303L10.8658 222.949L10.5124 221.532L9.92346 221.414L9.33449 220.115V219.524L8.86333 218.107L8.39216 217.753L8.50992 217.281L8.15656 216.69L7.68539 216.808L4.74056 215.746L5.44733 215.037L5.09393 214.092L4.38716 213.384L4.62276 212.793L3.916 212.321L4.62276 211.613L4.97613 210.786H5.32953L5.80069 209.723L6.15406 208.188L6.74303 208.07L7.09643 207.598L6.97863 206.181L7.56759 206.653L8.27436 206.771L9.09889 205.118L9.21669 204.527L9.92346 203.937L9.80566 203.346L10.6302 203.464L12.6327 201.693V200.748L13.1039 200.867L13.2217 199.922H14.0462L14.5174 199.331H16.0487L16.5199 200.04L17.6978 200.158V199.804L17.1089 199.686L16.4021 198.505L16.7554 198.032V196.97L17.1089 196.497L17.4622 195.435L17.3444 194.608L16.4021 193.781V192.837L16.8732 191.656L16.2843 190.829L15.9309 189.53V186.224L15.8131 185.751L14.8708 185.161L11.5726 184.216L8.74553 180.91L8.03876 180.437L7.09643 180.083L6.38966 179.965L5.9185 179.375L5.68289 177.603L5.9185 177.013L6.97863 176.186L7.44979 174.769L7.09643 173.47L7.33199 173.116L8.39216 173.47L8.62772 173.352L10.9836 173.47L11.6904 172.998L12.1615 172.053L12.7505 171.699L12.5149 169.809L12.7505 169.101L12.1615 168.038L13.2217 167.212L13.8106 167.448L14.3996 166.621L13.8106 166.031L13.4573 165.44L12.7505 165.204L12.0437 164.377H11.2192L10.8658 163.433L9.68786 162.606L9.09889 162.96H7.68539L6.27186 162.252L5.21173 162.134L5.09393 161.425L4.50496 161.071L3.916 161.189L3.7982 160.481L2.3847 159.654L1.79573 159.182L2.1491 158.591L2.0313 157.883L1.67793 156.82L1.08897 156.584L0.5 155.521L0.971166 154.812L0.853365 154.222L4.74056 154.93L6.15406 154.576L7.44979 154.694L8.39216 155.285L10.3946 157.646L12.0437 159.063L15.342 160.362L18.0512 162.016V163.197L17.3444 162.96L17.9334 162.134H16.9911L16.6377 162.488V163.197L21.1138 167.33L21.3494 168.865L21.8206 169.573L23.2341 170.164L24.6476 171.108L28.0636 170.99L28.7704 170.4L29.7127 170.282L30.3017 169.809L33.0109 169.101L33.3643 169.455L33.5999 170.164L34.0711 170.4L35.0134 170.164L35.7202 170.518L36.3091 171.463L36.0736 172.289L34.8956 174.061L34.3067 174.297L34.0711 175.123L33.8355 176.659L34.3067 177.721L33.4821 178.194L32.6575 178.312L28.7704 180.674L28.5348 181.5L28.6526 183.153L29.006 183.98L29.1237 185.043L28.8882 185.869L28.0636 186.932V187.523L28.8882 189.294L29.006 190.711L29.5949 192.01L29.2415 193.073L28.2992 194.017L27.9458 194.962L28.0636 195.435L27.3568 196.497L27.2391 196.97L27.5924 197.678L27.7102 198.741L28.0636 201.693L28.417 203.464L29.006 203.937L28.417 201.103L28.2992 198.859V198.505L27.7102 196.852L27.9458 196.497L28.7704 196.143L29.8305 196.025L30.0661 195.553L29.7127 194.136L30.1839 193.545L30.3017 192.837L30.6551 192.6L30.0661 191.656L30.7729 190.593V189.412L31.5974 188.113L31.9508 187.995L33.1287 188.585L33.4821 188.231L34.1889 189.412L34.8956 189.884L35.0134 190.711L34.8956 192.6L34.5422 193.427L34.3067 194.726L34.4244 195.907L33.8355 196.852L34.3067 198.387L33.9533 200.04L33.0109 201.221L31.4796 203.701L31.3618 204.291L31.4796 205.708L32.3042 206.299L33.0109 207.361L34.7778 207.834L35.249 207.48V206.299L34.8956 204.763L34.4244 204.291L34.0711 203.11L33.5999 202.284L34.0711 202.047L35.4846 202.52H36.4269L37.4871 202.047L38.665 200.63L39.6074 198.977L39.3718 198.387L39.4896 196.852L39.0184 196.025L38.7828 194.844L38.3116 193.545L38.4294 192.719L37.8405 191.892L37.3693 189.058L36.7803 187.759V186.46L36.1913 185.751L35.1312 185.397L34.7778 184.689L35.838 184.57L35.4846 182.917L35.0134 181.618L35.838 180.674L36.7803 178.548V176.54L37.8405 175.832L38.4294 174.415L38.5472 173.234L38.3116 172.407L37.9582 171.699L37.8405 170.99L37.0159 170.046V168.629L36.5447 167.802L35.838 167.448L35.1312 166.739H34.3067L33.7177 166.503L32.3042 166.267L31.7152 166.975L31.244 166.385L31.1262 165.44L30.0661 163.551L29.3593 163.078L28.6526 162.134L27.9458 161.779L28.7704 160.835V158.709L28.0636 157.292L27.4746 157.41L26.1789 156.938L25.5899 156.347L23.5875 155.639L20.7604 155.521L20.407 155.285L18.5223 153.041L18.0512 152.569L17.1089 150.797L17.58 149.971L18.0512 149.026L17.6978 148.554L16.9911 148.317L16.5199 146.9V146.192L17.58 144.421L18.0512 141.468L17.8156 139.697L17.4622 138.516L16.7554 137.926L15.5775 137.571L15.1064 136.981L15.6953 136.627H16.2843L15.6953 135.564L14.8708 135.328L13.9284 134.619L14.2818 134.383H15.342L16.0487 133.911L15.8131 132.376L15.1064 132.021L13.9284 131.667L13.8106 131.195L14.2818 130.486L14.5174 129.778L15.1064 130.014L15.4598 128.833L16.0487 128.597L16.4021 128.124L16.5199 126.353L15.9309 127.062L15.5775 126.825L15.6953 125.054L16.1665 124.582L18.0512 124.936L18.6401 124.464L21.1138 123.991L21.585 123.519L23.1163 122.929L26.2967 122.456L30.7729 122.574L34.4244 122.692H37.4871L39.254 121.63L43.9657 121.275L45.497 120.094L47.0283 119.858L48.6774 121.275L49.2664 121.039L51.74 121.157L52.2112 120.567L52.0934 119.976L52.8002 118.559L53.0358 118.323L54.9205 118.205L56.0984 117.142L61.6347 116.198L63.8727 117.024L63.9905 117.733L63.4016 119.504L62.2236 119.858L61.3991 121.157L60.4567 121.984L59.75 122.22L58.8076 123.519L57.9831 124.109L56.8051 124.464L55.745 125.881L55.156 126.235L54.3315 127.298L54.4493 129.305V130.25L54.8027 131.195L55.2738 131.667L57.6297 133.084L57.7475 133.793L58.3365 134.974L59.75 135.328L60.8101 136.391V135.682L60.2212 135.092L59.75 134.974L59.2788 134.501L58.6898 133.32L57.7475 132.494L55.3916 131.313L55.156 130.84L54.8027 129.778V128.361L55.0382 126.825L55.745 126.235L56.4518 125.999L57.3941 125.29L61.6347 124.582L62.1058 123.991H64.1083L64.4617 123.873L65.0507 122.81L65.5219 121.984L65.0507 121.748L65.2863 120.685L65.6396 120.094L67.4065 118.795L67.7599 118.323L68.1133 116.434L67.7599 115.843L67.171 116.079V117.142L66.8176 117.969L66.4642 118.323L65.8752 118.205L65.0507 117.26L64.4617 116.198L64.3439 115.489L63.6372 113.836L62.8126 112.655L63.2838 112.301L65.1685 112.537L65.993 113.245H66.3464L65.8752 112.301L65.4041 111.946L62.4592 111.71L62.2236 111.238L62.1058 110.529L61.2813 110.175V109.703L61.8703 108.64L61.5169 108.049L60.8101 107.223L59.6322 106.751L56.0984 106.514L55.5094 105.688L55.6272 104.979L55.2738 104.389L55.5094 103.68L57.0407 103.916L58.2187 104.979L57.8653 103.326L57.6297 102.854L56.6874 102.617L56.4518 102.145L57.3941 101.909L57.7475 102.263L58.2187 101.673L59.3966 101.2L60.1034 101.555L60.4567 102.381V103.09L61.1635 102.854L61.8703 103.208L62.2236 102.854L62.9304 103.09L62.4592 104.153L61.1635 104.861L61.0457 105.333H62.2236L62.577 104.507L64.2261 103.444L63.755 102.736L63.9905 101.791L63.6372 101.555L61.7525 102.145L61.5169 101.555L61.1635 101.318L60.8101 100.492H60.5745L60.1034 99.311L61.5169 98.7206L61.6347 98.3663L59.5144 98.1301L58.8076 97.7758L58.3365 97.1854L57.3941 96.595L53.9781 96.2407L54.4493 95.5322L54.9205 95.296L54.8027 94.4694L55.5094 93.6428L56.0984 93.997L56.6874 93.5247L56.8051 92.4619V91.5172H57.5119L57.9831 92.1076L58.4543 92.2257L58.6898 92.8162L57.5119 92.58L58.3365 94.2332L58.8076 93.7608H59.3966L60.5745 94.5875L60.4567 95.6503L61.1635 96.713L61.8703 96.3588L63.0482 96.595L62.577 95.7684L62.9304 94.9417L62.577 94.7056L61.7525 94.9417L61.5169 94.3513L62.2236 93.1704L63.0482 92.9342L63.755 93.7608L63.8727 92.4619L63.5194 91.6353L63.755 90.5725L63.9905 89.864L65.1685 88.4469L66.1108 87.6203L65.993 87.266L65.0507 87.1479L64.5795 86.4394L64.8151 85.9671L65.6396 85.6128L66.3464 85.849L66.8176 86.3213L66.582 87.3841L67.2888 87.9745L67.4065 87.1479L68.1133 86.6756L68.4667 85.849L69.0557 85.2585L68.5845 84.9043H66.582L65.8752 84.7862L65.2863 83.9596L63.5194 83.3691L62.8126 83.8415L62.577 83.4872L62.8126 82.4244L63.4016 81.3616L64.6973 81.1255L67.171 81.9521H67.6421L69.998 83.1329L70.587 83.0149L71.1759 81.9521L71.8827 81.7159L72.9428 80.8893V79.2361L73.2962 78.6456L74.3564 77.9371L75.1809 78.4094L74.5919 76.9924L75.0631 76.0477L76.1233 75.9296L76.241 75.2211L76.83 74.5125L77.419 74.1583L78.0079 74.0402V72.9774H78.9503L79.3036 72.387L79.6571 71.4423L80.246 72.1508L80.835 72.6231V73.0955L83.1908 72.9774L82.4841 72.1508L82.6019 71.4423L84.251 71.088L85.6645 70.9699L85.5467 70.2614L84.6043 69.789L84.9577 69.1986L87.667 68.6081L89.6695 68.2539L90.8474 67.073L91.6719 66.6006L92.4965 68.0177L92.9677 67.5453L93.4388 66.7187H94.0278V67.3092L94.7346 67.7815L95.9125 67.073L96.8548 67.4273L97.326 66.9549L97.2082 65.656L97.4438 64.9474L98.0328 64.5931L98.6217 65.1836L99.2107 64.5931L100.035 64.8293L101.567 64.0027L102.627 64.357L103.687 63.4123L106.278 62.8218L108.634 61.8771L111.343 61.0505L114.995 59.1611V58.6888L112.757 59.6335L112.168 59.5154L111.697 59.1611V58.4526L111.108 58.2164L110.519 59.3973L110.872 59.7516L110.401 60.4601L110.165 59.7516L109.223 58.0983L109.694 57.3898L109.341 57.1536L108.281 57.8621L107.338 58.3345V58.8069L107.81 59.2792V59.9877H107.338L106.514 59.7516L106.396 58.5707L106.043 57.626L106.749 56.7994L106.632 56.0908L106.749 54.91L106.985 54.5557H107.692L108.045 55.8547L108.87 55.2642V54.4376L108.163 53.611H109.223L109.577 53.3748H110.401L109.694 54.5557L110.401 55.1461L110.165 55.9727H110.637L111.226 55.1461H111.932L112.521 54.7919L112.993 55.2642L113.464 54.91L114.288 55.1461L114.642 54.91L114.17 54.0833L113.699 54.3195L112.993 53.4929L112.404 53.611L111.932 52.7844L112.286 52.5482L115.348 52.7844L116.055 53.3748L116.997 52.7844L117.351 52.9025L117.586 53.611L118.058 54.3195L118.175 55.028L119 54.6738V53.4929L119.471 53.1386L120.06 53.0205L119.825 52.312L118.882 51.7216L120.767 51.9578L121.474 53.1386H122.416L123.123 52.5482L123.83 52.7844L124.772 51.6035L128.306 52.312L129.13 53.1386L130.073 53.2567L130.779 53.9652L130.308 54.3195L129.601 54.0833L129.248 54.6738L129.719 55.1461L129.13 55.5004L129.366 56.7994L128.659 56.9174L128.188 57.3898L127.128 59.3973L126.185 59.9877L126.892 60.8143L127.363 60.9324L127.952 59.1611L128.895 58.0983L129.837 57.744L130.544 58.0983L131.604 57.8621L131.839 57.3898L131.25 56.7994L132.075 56.6813L132.782 56.0908L133.371 56.4451L133.017 57.2717L133.96 57.0355V57.744L133.489 58.4526L132.664 60.2239L133.489 60.1058L134.313 59.3973L135.373 59.9877V59.1611L136.198 58.5707L136.669 57.3898L137.14 57.0355L138.436 55.2642L139.496 55.1461L138.082 56.7994V57.2717L138.436 57.8621L137.965 58.6888L138.907 58.5707V57.626L139.496 56.9174H141.263L141.852 57.2717L142.794 56.7994L142.676 55.9727L141.734 55.028L140.91 55.1461L140.674 54.91L141.263 54.0833L141.852 53.611L142.441 53.7291L143.383 54.7919L143.737 54.6738L144.679 53.8472L143.383 52.7844L144.208 51.7216L144.679 52.0758L145.15 51.1311H146.446L146.917 50.895L148.213 49.4779L149.98 48.4151L149.744 49.4779L149.155 50.3045L150.097 50.5407L150.804 49.7141L152.571 50.0683L153.278 49.9503L152.807 51.1311L151.982 51.6035L152.571 52.4301L153.278 52.6663L154.22 52.0758H155.162L155.634 52.312V52.7844L154.691 53.2567L155.045 53.9652L156.34 54.2014L156.812 55.1461V56.327L156.34 57.626V59.1611V60.342L155.869 61.5229L154.456 62.8218L155.516 63.2942L155.751 62.9399L156.576 60.6962L157.636 59.6335L157.872 58.8069V57.2717L157.401 55.8547L157.754 53.611L157.283 52.6663L157.165 51.8397L155.987 50.5407L155.869 48.7694L155.398 48.0608L154.22 47.9428L153.631 46.0534L153.278 45.6991H151.746L151.511 45.4629V44.5182L150.804 42.6288L149.98 41.6841L150.333 40.3851L152.807 41.2118L155.045 42.0384L157.047 41.9203L157.872 41.4479L160.345 41.3298L160.817 42.2746L163.761 40.8575L164.939 39.7947L165.411 40.7394L166.117 40.9756L166.353 41.566L166.117 42.3926L167.884 41.9203L168.355 41.566L169.062 42.1565L171.418 42.6288L171.654 42.9831L172.007 44.0459L172.242 44.1639L175.187 44.7544L174.716 43.9278L173.067 43.1012L172.714 42.7469L171.536 42.0384L170.122 41.9203L170.004 41.3298L168.709 40.6213L166.235 40.5032L165.411 39.4404L165.293 39.0862L166.235 38.4957L166.706 37.4329L166.942 34.5988V33.6541L167.413 33.536L167.649 32.5914L167.295 32.2371H166.353L165.882 31.8828L164.939 30.2296L165.175 29.2849L165.057 28.3402L165.528 26.5689L165.411 25.8603L165.646 25.388L166.353 25.2699L167.531 25.5061L167.649 24.7975L167.766 23.3805L167.177 23.0262L167.531 21.7273L169.18 19.8379L170.24 17.7123L171.771 16.1771L173.538 12.9888L173.892 12.0441L174.481 11.6898L175.305 12.3983L175.776 11.3355L176.365 10.627L176.719 9.56422L177.543 8.26524L179.781 6.7301L180.017 6.49393L179.899 5.54922L180.252 5.31305L182.137 2.83319L182.491 2.71512L182.844 3.54173L183.315 4.25026L184.964 3.7779L186.024 2.59702L186.496 2.24275L186.849 1.41614L188.145 0.35336L189.205 0.589532L190.147 0.117188L190.383 0.707627L189.911 2.00658L190.383 2.59702L192.974 1.17997L193.445 1.29807L193.799 2.47894L193.916 3.65982L194.388 4.48643L195.212 5.31305L196.979 5.90349L197.804 6.96627L201.691 6.02158L201.455 6.96627L201.926 7.43863L202.044 8.38334V9.09185L202.515 10.3908V10.8632L203.222 11.2174L204.518 12.2802L204.753 12.7526L204.282 13.2249L201.102 12.6345L200.866 12.7526L200.631 13.6973L199.806 14.9962L198.864 15.4686L198.51 15.941L199.217 16.1771L198.628 17.1218L197.686 17.358L196.743 18.4208L195.448 18.657L194.388 19.4836L193.799 19.2474L192.503 19.7198L191.561 20.7826L190.5 20.5464L189.205 21.4911L190.147 22.0815L193.681 21.0187V21.373L194.388 22.0815H195.801L196.39 21.373H196.743L197.804 22.0815L199.806 21.2549L201.22 21.373L201.809 20.7826H202.28L201.809 21.8453L200.984 22.4358L200.748 23.0262L201.102 23.6167L200.513 23.9709L198.864 23.8528L198.51 25.0337L198.628 25.5061L199.571 25.2699L200.16 25.6242L201.22 25.1518L202.28 25.0337L203.811 23.1443L204.753 23.0262L205.46 23.6167L206.049 23.7348L206.285 24.3252L207.109 24.5614L207.58 24.9156L208.405 24.7975L207.934 24.2071L208.758 23.2624L209.936 23.9709L209.819 24.5614L210.054 24.9156L210.643 24.4433L211.821 24.7975V25.2699L212.528 25.8603L212.763 26.805L213.47 27.2774V28.104L211.939 28.5764L212.646 29.2849L211.703 29.6392L211.35 30.1115L212.057 30.3477L211.585 31.2924H210.643L210.29 32.9456L209.819 33.418L209.465 34.3627L208.876 34.2446L208.405 33.8903L207.934 34.1265L208.405 35.1893V36.0159L208.052 37.3149L207.463 38.3776L207.109 39.2043L206.638 39.0862L206.756 38.2596L205.931 37.6691L205.578 37.7872L205.342 38.7319L205.578 40.0309L205.46 40.5032L205.931 40.9756L207.816 41.0937L208.523 41.9203H208.876L209.112 40.9756L210.29 40.8575L211.939 40.0309L214.295 40.9756L216.179 40.0309L216.533 39.3224L217.24 37.1968V36.3702L216.651 35.6616L216.886 34.7169L216.768 34.1265L216.886 33.536L218.182 33.6541L219.006 33.418L219.713 33.8903L219.478 34.5988L221.009 33.8903L222.305 34.2446L225.014 33.418L226.074 33.7722L227.134 32.8275H227.605L227.841 33.418H229.137L229.372 34.0084L230.197 34.3627L230.786 34.1265L231.139 34.4807L231.728 34.5988L232.435 34.9531L234.673 32.9456L236.204 32.7094L236.558 32.8275L236.675 33.418L237.147 33.8903L237.971 33.6541L238.678 33.7722L238.56 33.0637L238.913 32.5914L239.974 32.7094L240.327 33.1818L239.856 34.1265L240.209 35.3074L240.916 34.4807L243.39 35.1893L242.918 35.6616L243.272 36.2521L242.565 36.9606L242.918 37.551L244.214 37.1968L245.392 38.0234L247.866 41.3298L248.101 41.9203L245.745 45.4629L246.806 44.7544L247.159 44.1639L248.337 42.6288H248.808L251.635 45.3448L252.106 46.5257L251.517 46.6438L251.871 47.3523L252.106 48.4151L251.635 49.0056L251.753 49.4779L251.164 49.7141L251.282 50.6588L252.106 50.4226L252.342 50.6588L252.931 52.1939L252.224 54.3195L251.046 55.3823L253.755 54.5557L254.227 53.9652L254.344 53.0205L253.873 52.1939L254.462 51.6035H255.051L255.758 52.1939L256.111 51.3673L254.933 50.4226L254.227 50.1864L253.755 49.7141L253.52 48.6513L254.933 48.7694L255.876 48.4151L256.229 49.0056L255.64 49.7141L255.876 50.0683H256.7L257.407 52.0758L257.289 54.5557V55.2642L257.996 55.9727L257.643 57.0355L258.114 57.3898L257.878 58.6888L258.114 59.7516V60.342H258.82L258.585 58.9249L259.174 58.6888L259.645 59.043L259.998 58.5707L260.352 59.2792L260.116 59.7516L260.587 61.0505L260.116 62.7038V63.4123L259.645 64.9474L259.527 65.774L259.292 66.8368V68.0177L259.056 68.8443L258.232 69.5528L258.114 70.3795H257.171L257.289 69.789L258.232 68.0177L258.585 66.9549L255.876 65.774H254.933V64.9474L250.811 61.0505L249.397 60.9324L250.104 62.2314L250.457 63.4123L251.046 63.6484L251.517 63.5304L252.224 64.2389L252.695 64.4751L253.049 65.656L252.577 66.1283L253.166 67.1911L252.931 68.1358L252.46 68.9624L252.695 69.9071L253.166 70.1433L254.227 70.0252L253.991 68.9624L254.109 68.0177L255.522 67.073L256.229 67.3092V68.1358L255.876 69.3167L256.465 70.4975L257.996 71.3242L258.703 70.9699L259.056 71.5603L259.174 72.6231L259.056 73.9221H258.349L257.996 74.7487L258.82 74.9849L258.938 75.3391L258.467 77.819L258.114 78.2914L256.7 80.6531L255.051 82.6606L254.698 83.4872L254.109 84.0776L253.991 84.9043L253.166 86.2032L250.457 88.2107H249.868L247.748 89.5097L247.395 90.1001V90.9268L246.923 92.2257L246.334 92.4619L245.981 93.4066L246.334 93.6428L245.745 94.4694L245.274 94.7056L244.803 95.5322L242.801 94.5875L242.329 94.7056L240.209 97.0673L239.502 97.1854L239.738 97.7758L239.031 98.7206L237.971 98.9567L237.5 99.5472L236.086 100.492L235.615 100.61L234.908 100.138H234.437L234.908 101.318L234.673 102.263L233.613 103.562L231.964 103.444L231.61 104.507L229.726 104.979L229.372 104.743L228.783 105.097L229.372 105.806H229.961L231.61 105.333L231.846 105.806L231.492 107.459L231.257 108.286L230.55 109.23L229.019 110.411L228.194 111.474L225.956 112.064L224.66 113.127L223.954 114.544L223.365 114.78L222.305 116.434L221.951 117.024L221.48 118.323L220.656 118.677L220.891 119.622L220.302 120.094L217.828 123.165L218.064 122.456L217.593 122.102L217.122 122.338L215.708 123.755L214.884 123.519L212.763 123.165L212.292 123.637H211.114L210.761 124.818L211.232 125.408L210.996 125.999L209.583 127.534L209.112 128.243L208.758 130.014L208.405 130.84L207.463 131.785H207.109L206.285 131.195L205.578 131.549L204.4 131.313L203.104 132.612L202.987 134.147L202.751 135.564L201.691 136.627L201.573 137.099L201.455 139.461L200.866 140.169L200.042 141.705L199.217 142.767L197.921 143.712L197.45 144.539L195.801 144.893L196.154 145.129L198.864 145.365L199.571 144.539L200.277 144.184L200.866 143.122L201.337 142.531L202.162 142.295L202.633 140.878L203.576 140.996L203.693 141.823L205.696 142.767L206.756 142.885L207.463 143.712L208.641 143.948L210.761 143.122L210.408 142.649L209.819 142.413L208.994 142.531L207.227 142.177L206.285 141.35L204.518 140.406L204.282 140.051L204.047 138.989L203.929 137.099L204.282 135.918L204.753 135.682L205.342 134.619L208.405 135.918H209.23L210.29 134.855L212.41 135.564L213.588 135.092L215.237 135.21L216.062 134.855L217.122 133.675L217.946 133.32L219.124 133.911L220.067 133.675L220.184 132.966L220.067 132.494L219.124 132.612V131.903L220.184 131.431L221.245 131.667L222.305 130.84L224.072 130.604L225.132 130.014L226.31 129.66L226.545 128.833L226.192 128.243L226.31 127.534L227.252 128.361L227.841 128.597V128.006L226.781 126.825L225.956 126.471V125.763L226.545 125.881L227.37 126.589L227.959 127.534L228.901 128.006H229.961L230.904 127.534L232.081 126.471L232.788 126.353L233.142 125.526L232.906 124.7L233.848 124.464L235.144 123.991V123.047L236.086 122.81L238.56 121.866L238.678 121.748Z" fill="#F4F4F4" stroke="#676C7A" stroke-width="0.666667" stroke-linecap="round" stroke-linejoin="round"/>
</svg>
