<svg width="52" height="67" viewBox="0 0 52 67" fill="none" xmlns="http://www.w3.org/2000/svg">
<g filter="url(#filter0_d_509_2102)">
<path d="M46.6058 23.9351C46.6058 35.2761 29.2512 58.6861 26.0959 58.6861C22.9405 58.6861 5.58594 35.2761 5.58594 23.9351C5.58594 12.5941 14.7685 3.40039 26.0959 3.40039C37.4232 3.40039 46.6058 12.5941 46.6058 23.9351Z" fill="#212C33"/>
</g>
<g filter="url(#filter1_d_509_2102)">
<ellipse cx="26.0894" cy="23.9346" rx="15.7769" ry="15.7959" fill="#F4F4F4"/>
</g>
<rect x="18.6719" y="17.6172" width="9.17612" height="3.0134" fill="#EE1A26"/>
<rect x="29.7812" y="17.6172" width="3.76704" height="3.0134" fill="#EE1A26"/>
<rect x="33.5469" y="30.2559" width="9.17612" height="3.0134" transform="rotate(-180 33.5469 30.2559)" fill="#EE1A26"/>
<rect x="33.5469" y="25.3945" width="14.875" height="3.0134" transform="rotate(-180 33.5469 25.3945)" fill="#EE1A26"/>
<rect x="22.4453" y="30.2559" width="3.76704" height="3.0134" transform="rotate(-180 22.4453 30.2559)" fill="#EE1A26"/>
<defs>
<filter id="filter0_d_509_2102" x="0.252605" y="0.733724" width="51.6901" height="65.9518" filterUnits="userSpaceOnUse" color-interpolation-filters="sRGB">
<feFlood flood-opacity="0" result="BackgroundImageFix"/>
<feColorMatrix in="SourceAlpha" type="matrix" values="0 0 0 0 0 0 0 0 0 0 0 0 0 0 0 0 0 0 127 0" result="hardAlpha"/>
<feOffset dy="2.66667"/>
<feGaussianBlur stdDeviation="2.66667"/>
<feComposite in2="hardAlpha" operator="out"/>
<feColorMatrix type="matrix" values="0 0 0 0 0 0 0 0 0 0 0 0 0 0 0 0 0 0 0.15 0"/>
<feBlend mode="normal" in2="BackgroundImageFix" result="effect1_dropShadow_509_2102"/>
<feBlend mode="normal" in="SourceGraphic" in2="effect1_dropShadow_509_2102" result="shape"/>
</filter>
<filter id="filter1_d_509_2102" x="8.89199" y="8.13867" width="34.3957" height="35.8533" filterUnits="userSpaceOnUse" color-interpolation-filters="sRGB">
<feFlood flood-opacity="0" result="BackgroundImageFix"/>
<feColorMatrix in="SourceAlpha" type="matrix" values="0 0 0 0 0 0 0 0 0 0 0 0 0 0 0 0 0 0 127 0" result="hardAlpha"/>
<feOffset dy="2.84102"/>
<feGaussianBlur stdDeviation="0.710256"/>
<feComposite in2="hardAlpha" operator="out"/>
<feColorMatrix type="matrix" values="0 0 0 0 0.203922 0 0 0 0 0.266667 0 0 0 0 0.305882 0 0 0 0.12 0"/>
<feBlend mode="normal" in2="BackgroundImageFix" result="effect1_dropShadow_509_2102"/>
<feBlend mode="normal" in="SourceGraphic" in2="effect1_dropShadow_509_2102" result="shape"/>
</filter>
</defs>
</svg>
